<svg xmlns="http://www.w3.org/2000/svg" viewBox="0 0 200 200" width="100%" height="100%">
  <g stroke="#111827" stroke-width="8" stroke-linecap="round" stroke-linejoin="round" fill="none">
    
    <path d="M85 60 C 75 40, 95 30, 100 45 C 105 30, 125 40, 115 60" />

    <path d="M 85 60
             C 40 60, 20 100, 30 140
             C 40 175, 90 180, 125 165
             C 150 155, 160 135, 160 120
             C 175 130, 195 120, 185 100
             C 180 90, 170 95, 165 100
             C 170 85, 160 70, 145 80
             C 135 85, 135 100, 135 100
             C 130 75, 115 60, 85 60 Z" />

    <path d="M 55 110 Q 60 100 65 110" />

    <path d="M 90 110 Q 95 100 100 110" />

    <path d="M 70 120 L 85 120 C 85 132, 70 132, 70 120 Z" />

    <path d="M 120 145 C 130 155, 150 145, 150 125" />
    
  </g>
</svg>
